<svg xmlns="http://www.w3.org/2000/svg" xmlns:xlink="http://www.w3.org/1999/xlink" width="243" zoomAndPan="magnify" viewBox="0 0 182.25 311.999995" height="416" preserveAspectRatio="xMidYMid meet" version="1.0"><defs><clipPath id="d12168c1cc"><path d="M 0 0.640625 L 181.503906 0.640625 L 181.503906 311.359375 L 0 311.359375 Z M 0 0.640625 " clip-rule="nonzero"/></clipPath><clipPath id="9faf900825"><path d="M 0 0.640625 L 181.503906 0.640625 L 181.503906 152.265625 L 0 152.265625 Z M 0 0.640625 " clip-rule="nonzero"/></clipPath><clipPath id="3dab58b597"><path d="M 8.214844 0.640625 L 173.285156 0.640625 C 175.464844 0.640625 177.554688 1.503906 179.097656 3.046875 C 180.636719 4.585938 181.503906 6.675781 181.503906 8.855469 L 181.503906 144.046875 C 181.503906 146.226562 180.636719 148.316406 179.097656 149.855469 C 177.554688 151.398438 175.464844 152.265625 173.285156 152.265625 L 8.214844 152.265625 C 6.039062 152.265625 3.949219 151.398438 2.40625 149.855469 C 0.867188 148.316406 0 146.226562 0 144.046875 L 0 8.855469 C 0 6.675781 0.867188 4.585938 2.40625 3.046875 C 3.949219 1.503906 6.039062 0.640625 8.214844 0.640625 Z M 8.214844 0.640625 " clip-rule="nonzero"/></clipPath><clipPath id="7430698c1c"><path d="M 0 0.640625 L 181.503906 0.640625 L 181.503906 152.265625 L 0 152.265625 Z M 0 0.640625 " clip-rule="nonzero"/></clipPath><clipPath id="a664e33f30"><path d="M 8.214844 0.640625 L 173.285156 0.640625 C 175.464844 0.640625 177.554688 1.503906 179.097656 3.046875 C 180.636719 4.585938 181.503906 6.675781 181.503906 8.855469 L 181.503906 144.046875 C 181.503906 146.226562 180.636719 148.316406 179.097656 149.855469 C 177.554688 151.398438 175.464844 152.265625 173.285156 152.265625 L 8.214844 152.265625 C 6.039062 152.265625 3.949219 151.398438 2.40625 149.855469 C 0.867188 148.316406 0 146.226562 0 144.046875 L 0 8.855469 C 0 6.675781 0.867188 4.585938 2.40625 3.046875 C 3.949219 1.503906 6.039062 0.640625 8.214844 0.640625 Z M 8.214844 0.640625 " clip-rule="nonzero"/></clipPath><clipPath id="57a4e78f5d"><rect x="0" width="182" y="0" height="153"/></clipPath><clipPath id="0ca07ad8d5"><path d="M 0 159.734375 L 181.503906 159.734375 L 181.503906 311.359375 L 0 311.359375 Z M 0 159.734375 " clip-rule="nonzero"/></clipPath><clipPath id="644f8c2e43"><path d="M 8.214844 159.734375 L 173.285156 159.734375 C 175.464844 159.734375 177.554688 160.601562 179.097656 162.144531 C 180.636719 163.683594 181.503906 165.773438 181.503906 167.953125 L 181.503906 303.144531 C 181.503906 305.324219 180.636719 307.414062 179.097656 308.953125 C 177.554688 310.496094 175.464844 311.359375 173.285156 311.359375 L 8.214844 311.359375 C 6.039062 311.359375 3.949219 310.496094 2.40625 308.953125 C 0.867188 307.414062 0 305.324219 0 303.144531 L 0 167.953125 C 0 165.773438 0.867188 163.683594 2.40625 162.144531 C 3.949219 160.601562 6.039062 159.734375 8.214844 159.734375 Z M 8.214844 159.734375 " clip-rule="nonzero"/></clipPath><clipPath id="e91eb4b7f0"><path d="M 0 0.734375 L 181.503906 0.734375 L 181.503906 152.359375 L 0 152.359375 Z M 0 0.734375 " clip-rule="nonzero"/></clipPath><clipPath id="d72fb72693"><path d="M 8.214844 0.734375 L 173.285156 0.734375 C 175.464844 0.734375 177.554688 1.601562 179.097656 3.144531 C 180.636719 4.683594 181.503906 6.773438 181.503906 8.953125 L 181.503906 144.144531 C 181.503906 146.324219 180.636719 148.414062 179.097656 149.953125 C 177.554688 151.496094 175.464844 152.359375 173.285156 152.359375 L 8.214844 152.359375 C 6.039062 152.359375 3.949219 151.496094 2.40625 149.953125 C 0.867188 148.414062 0 146.324219 0 144.144531 L 0 8.953125 C 0 6.773438 0.867188 4.683594 2.40625 3.144531 C 3.949219 1.601562 6.039062 0.734375 8.214844 0.734375 Z M 8.214844 0.734375 " clip-rule="nonzero"/></clipPath><clipPath id="ac4efd02f1"><rect x="0" width="182" y="0" height="153"/></clipPath></defs><g clip-path="url(#d12168c1cc)"><path fill="#ffffff" d="M 0 0.640625 L 181.503906 0.640625 L 181.503906 311.359375 L 0 311.359375 Z M 0 0.640625 " fill-opacity="1" fill-rule="nonzero"/><path fill="#ffffff" d="M 0 0.640625 L 181.503906 0.640625 L 181.503906 311.359375 L 0 311.359375 Z M 0 0.640625 " fill-opacity="1" fill-rule="nonzero"/></g><g clip-path="url(#9faf900825)"><g clip-path="url(#3dab58b597)"><g transform="matrix(1, 0, 0, 1, 0, -0.000000000000017875)"><g clip-path="url(#57a4e78f5d)"><g clip-path="url(#7430698c1c)"><g clip-path="url(#a664e33f30)"><path fill="#5ce1e6" d="M 0 0.640625 L 181.238281 0.640625 L 181.238281 152.265625 L 0 152.265625 Z M 0 0.640625 " fill-opacity="1" fill-rule="nonzero"/></g></g></g></g></g></g><g clip-path="url(#0ca07ad8d5)"><g clip-path="url(#644f8c2e43)"><g transform="matrix(1, 0, 0, 1, 0, 159)"><g clip-path="url(#ac4efd02f1)"><g clip-path="url(#e91eb4b7f0)"><g clip-path="url(#d72fb72693)"><path fill="#5ce1e6" d="M 0 0.734375 L 181.238281 0.734375 L 181.238281 152.359375 L 0 152.359375 Z M 0 0.734375 " fill-opacity="1" fill-rule="nonzero"/></g></g></g></g></g></g></svg>