<svg xmlns="http://www.w3.org/2000/svg" xmlns:xlink="http://www.w3.org/1999/xlink" width="432" zoomAndPan="magnify" viewBox="0 0 324 89.999999" height="120" preserveAspectRatio="xMidYMid meet" version="1.0"><defs><clipPath id="e8692a3731"><path d="M 0 0 L 226 0 L 226 90 L 0 90 Z M 0 0 " clip-rule="nonzero"/></clipPath><clipPath id="6a559633f5"><path d="M 2.785156 0 L 222.957031 0 C 223.695312 0 224.40625 0.292969 224.925781 0.816406 C 225.449219 1.335938 225.742188 2.046875 225.742188 2.785156 L 225.742188 87.214844 C 225.742188 87.953125 225.449219 88.664062 224.925781 89.183594 C 224.40625 89.707031 223.695312 90 222.957031 90 L 2.785156 90 C 2.046875 90 1.335938 89.707031 0.816406 89.183594 C 0.292969 88.664062 0 87.953125 0 87.214844 L 0 2.785156 C 0 2.046875 0.292969 1.335938 0.816406 0.816406 C 1.335938 0.292969 2.046875 0 2.785156 0 Z M 2.785156 0 " clip-rule="nonzero"/></clipPath><clipPath id="0577dfd024"><path d="M 0 0 L 225.839844 0 L 225.839844 90 L 0 90 Z M 0 0 " clip-rule="nonzero"/></clipPath><clipPath id="f6313d2c98"><path d="M 2.785156 0 L 222.957031 0 C 223.695312 0 224.40625 0.292969 224.925781 0.816406 C 225.449219 1.335938 225.742188 2.046875 225.742188 2.785156 L 225.742188 87.214844 C 225.742188 87.953125 225.449219 88.664062 224.925781 89.183594 C 224.40625 89.707031 223.695312 90 222.957031 90 L 2.785156 90 C 2.046875 90 1.335938 89.707031 0.816406 89.183594 C 0.292969 88.664062 0 87.953125 0 87.214844 L 0 2.785156 C 0 2.046875 0.292969 1.335938 0.816406 0.816406 C 1.335938 0.292969 2.046875 0 2.785156 0 Z M 2.785156 0 " clip-rule="nonzero"/></clipPath><clipPath id="fef8ebde2a"><rect x="0" width="226" y="0" height="90"/></clipPath><clipPath id="4d7383358e"><path d="M 231.601562 0 L 324 0 L 324 90 L 231.601562 90 Z M 231.601562 0 " clip-rule="nonzero"/></clipPath><clipPath id="20ebc29e1a"><path d="M 234.382812 0 L 321.214844 0 C 321.953125 0 322.664062 0.292969 323.183594 0.816406 C 323.707031 1.335938 324 2.046875 324 2.785156 L 324 87.214844 C 324 87.953125 323.707031 88.664062 323.183594 89.183594 C 322.664062 89.707031 321.953125 90 321.214844 90 L 234.382812 90 C 233.644531 90 232.9375 89.707031 232.414062 89.183594 C 231.894531 88.664062 231.601562 87.953125 231.601562 87.214844 L 231.601562 2.785156 C 231.601562 2.046875 231.894531 1.335938 232.414062 0.816406 C 232.9375 0.292969 233.644531 0 234.382812 0 Z M 234.382812 0 " clip-rule="nonzero"/></clipPath><clipPath id="69c6e12b71"><path d="M 0.601562 0 L 93 0 L 93 90 L 0.601562 90 Z M 0.601562 0 " clip-rule="nonzero"/></clipPath><clipPath id="3e06bbf8bf"><path d="M 3.382812 0 L 90.214844 0 C 90.953125 0 91.664062 0.292969 92.183594 0.816406 C 92.707031 1.335938 93 2.046875 93 2.785156 L 93 87.214844 C 93 87.953125 92.707031 88.664062 92.183594 89.183594 C 91.664062 89.707031 90.953125 90 90.214844 90 L 3.382812 90 C 2.644531 90 1.9375 89.707031 1.414062 89.183594 C 0.894531 88.664062 0.601562 87.953125 0.601562 87.214844 L 0.601562 2.785156 C 0.601562 2.046875 0.894531 1.335938 1.414062 0.816406 C 1.9375 0.292969 2.644531 0 3.382812 0 Z M 3.382812 0 " clip-rule="nonzero"/></clipPath><clipPath id="3ba6144501"><rect x="0" width="93" y="0" height="90"/></clipPath></defs><rect x="-32.4" width="388.8" fill="#ffffff" y="-9" height="107.999999" fill-opacity="1"/><rect x="-32.4" width="388.8" fill="#ffffff" y="-9" height="107.999999" fill-opacity="1"/><g clip-path="url(#e8692a3731)"><g clip-path="url(#6a559633f5)"><g transform="matrix(1, 0, 0, 1, 0, -0.00000000000000949)"><g clip-path="url(#fef8ebde2a)"><g clip-path="url(#0577dfd024)"><g clip-path="url(#f6313d2c98)"><path fill="#5cfb00" d="M 0 0 L 225.703125 0 L 225.703125 90 L 0 90 Z M 0 0 " fill-opacity="1" fill-rule="nonzero"/></g></g></g></g></g></g><g clip-path="url(#4d7383358e)"><g clip-path="url(#20ebc29e1a)"><g transform="matrix(1, 0, 0, 1, 231, -0.00000000000000949)"><g clip-path="url(#3ba6144501)"><g clip-path="url(#69c6e12b71)"><g clip-path="url(#3e06bbf8bf)"><path fill="#5cfb00" d="M 0.601562 0 L 93.0625 0 L 93.0625 90 L 0.601562 90 Z M 0.601562 0 " fill-opacity="1" fill-rule="nonzero"/></g></g></g></g></g></g></svg>