<svg xmlns="http://www.w3.org/2000/svg" xmlns:xlink="http://www.w3.org/1999/xlink" width="2400" zoomAndPan="magnify" viewBox="0 0 1800 570" height="760" preserveAspectRatio="xMidYMid meet" version="1.0"><defs><clipPath id="245b5233c5"><path d="M 637.445312 0 L 1162.445312 0 L 1162.445312 570 L 637.445312 570 Z M 637.445312 0 " clip-rule="nonzero"/></clipPath></defs><rect x="-180" width="2160" fill="#ffffff" y="-57" height="684" fill-opacity="1"/><rect x="-180" width="2160" fill="#ffffff" y="-57" height="684" fill-opacity="1"/><g clip-path="url(#245b5233c5)"><path fill="#000000" d="M 675.773438 404.460938 C 677.1875 403.527344 678.597656 402.597656 680.476562 401.359375 C 680.277344 403.765625 679.238281 405.222656 678.445312 406.726562 C 673.097656 416.867188 668.175781 427.253906 665.316406 438.34375 C 664.003906 443.425781 664.324219 449.011719 663.660156 454.351562 C 661.652344 470.484375 660.972656 486.777344 657.472656 502.71875 C 656.136719 508.808594 654.480469 514.816406 652.277344 520.644531 C 646.515625 535.890625 642.394531 551.574219 639.824219 567.683594 C 638.070312 567.347656 638.464844 566.097656 638.375 565.210938 C 636.824219 550.550781 636.679688 536.039062 642.167969 521.972656 C 646.578125 510.671875 646.546875 498.558594 648.269531 486.769531 C 649.09375 481.117188 650.003906 475.476562 650.871094 469.828125 C 651.007812 468.9375 652.277344 467.667969 649.757812 467.921875 C 648.675781 468.027344 649.4375 466.273438 649.535156 465.355469 C 650.839844 453.605469 652.953125 442.027344 657.234375 430.871094 C 654.542969 431.09375 654.425781 431.0625 655.054688 428.636719 C 657.875 417.730469 662.742188 407.664062 668.015625 397.789062 C 670.136719 393.8125 672.539062 389.984375 675.273438 385.3125 C 672.296875 386.679688 670.097656 387.6875 667.222656 389.015625 C 669.207031 384.441406 671.921875 381.3125 674.425781 378.070312 C 678.707031 372.53125 683.808594 367.722656 688.523438 362.5625 C 701.160156 348.734375 715.015625 336.082031 727.429688 322.042969 C 727.832031 321.585938 728.199219 321.089844 728.917969 320.195312 C 725.46875 320.277344 722.957031 322.652344 719.203125 321.941406 C 727.765625 309.121094 741.191406 300.773438 748.394531 286.761719 C 744.527344 287.03125 741.132812 289.023438 737.292969 287.640625 C 738.707031 284.390625 741.078125 281.910156 742.96875 279.117188 C 744.9375 276.214844 746.304688 273.8125 744.839844 269.554688 C 743.113281 264.539062 741.292969 259.289062 740.941406 253.757812 C 740.605469 248.402344 740.78125 243.121094 742.0625 237.554688 C 739.765625 238.472656 739.527344 241.121094 737.171875 241.832031 C 736.5625 239.03125 736.621094 236.34375 737.308594 233.671875 C 738.957031 227.253906 741.367188 221.105469 743.785156 214.953125 C 744.144531 214.03125 745.703125 212.601562 743 212.382812 C 742.046875 212.304688 742.605469 211.410156 742.894531 210.921875 C 743.273438 210.265625 743.761719 209.671875 744.167969 209.03125 C 747.136719 204.375 747.128906 204.390625 742.421875 201.382812 C 733.53125 195.714844 729.070312 187.0625 726.125 177.339844 C 723.445312 168.484375 723.261719 159.589844 725.292969 150.605469 C 726.941406 143.324219 727.0625 136.136719 725.550781 128.71875 C 722.332031 112.914062 736.027344 100.8125 751.707031 105.332031 C 754.132812 106.03125 756.488281 107.046875 758.761719 108.152344 C 760.578125 109.03125 761.546875 109.269531 762.25 106.816406 C 764.148438 100.238281 766.226562 93.691406 769.902344 87.886719 C 769.09375 86.425781 767.582031 87.953125 766.773438 86.777344 C 770.414062 80.679688 774.953125 75.292969 780.1875 70.410156 C 781.066406 69.59375 784.164062 68.996094 781.738281 66.496094 C 781.234375 65.976562 782.171875 65.480469 782.582031 65.042969 C 787.96875 59.253906 793.691406 53.886719 800.917969 50.394531 C 802.640625 49.5625 803.816406 48.292969 804.945312 46.652344 C 807.480469 42.960938 811.644531 41.289062 815.589844 39.542969 C 820.359375 37.425781 825.273438 35.71875 830.519531 35.144531 C 831.421875 35.046875 833.128906 35.582031 832.039062 33.328125 C 831.300781 31.8125 832.960938 32.320312 833.65625 32.253906 C 836.3125 32 838.976562 31.660156 841.636719 31.664062 C 851.34375 31.679688 858.949219 27.492188 865.296875 20.425781 C 867.496094 17.984375 870.074219 15.882812 872.453125 13.601562 C 873.75 12.351562 874.917969 11.929688 875.292969 14.207031 C 875.757812 17.050781 876.71875 16.25 878.007812 14.769531 C 881.945312 10.246094 886.234375 6.09375 891.351562 2.902344 C 892.75 2.035156 894.222656 1.253906 895.738281 0.621094 C 897.867188 -0.261719 899.449219 -0.421875 898.777344 2.878906 C 897.921875 7.046875 897.386719 11.273438 896.578125 16.328125 C 900.941406 13.167969 904.78125 10.832031 909.199219 9.621094 C 911.410156 9.007812 912.320312 9.453125 911.960938 11.871094 C 911.535156 14.738281 911.21875 17.625 910.839844 20.675781 C 915.761719 17.53125 915.773438 17.523438 919.046875 22.5 C 919.886719 23.773438 920.613281 25.117188 921.414062 26.414062 C 923.839844 30.324219 927.1875 32.445312 931.917969 33.023438 C 940.65625 34.101562 949.148438 36.183594 956.304688 41.839844 C 956.3125 43.363281 954.144531 42.578125 954.03125 44.21875 C 965.863281 48.722656 975.25 56.8125 984.367188 65.378906 C 983.023438 66.898438 981.6875 65.800781 980.6875 66.539062 C 980.484375 67.800781 981.613281 68.210938 982.285156 68.859375 C 987.015625 73.378906 990.441406 78.855469 993.742188 84.421875 C 993.871094 84.640625 994.195312 84.894531 994.140625 85.046875 C 991.917969 91.992188 999.519531 95.457031 999.578125 101.613281 C 999.296875 102.964844 997.78125 100.828125 997 102.390625 C 997.65625 103.691406 998.511719 105.09375 999.089844 106.613281 C 999.871094 108.65625 1000.769531 109.109375 1003.035156 108.261719 C 1009.550781 105.832031 1015.550781 107.199219 1020.714844 111.832031 C 1026.542969 117.058594 1027.847656 123.417969 1024.628906 130.460938 C 1022.707031 134.65625 1022.773438 138.226562 1025.476562 142.128906 C 1030.289062 149.078125 1029.945312 157.328125 1028.550781 164.867188 C 1027.734375 169.308594 1026.535156 173.835938 1025.613281 178.375 C 1024.542969 183.625 1021.554688 188.273438 1017.664062 192.042969 C 1015.417969 194.21875 1015.402344 196.019531 1016.769531 198.644531 C 1019.921875 204.710938 1022.757812 210.9375 1026.070312 217.820312 C 1023.019531 216.84375 1022.1875 217.21875 1023.1875 220.027344 C 1025.421875 226.363281 1025.375 233.023438 1025.003906 239.648438 C 1024.949219 240.648438 1025.660156 242.195312 1024.148438 242.617188 C 1023.050781 242.914062 1022.539062 241.570312 1021.757812 240.976562 C 1021.394531 240.699219 1021.226562 240.066406 1020.210938 240.472656 C 1021.347656 245.441406 1021.78125 250.566406 1021.492188 255.757812 C 1021.402344 257.453125 1021.089844 258.617188 1019.074219 257.613281 C 1017.449219 256.800781 1017.089844 257.726562 1016.855469 259.039062 C 1016.128906 263.007812 1014.480469 266.539062 1011.757812 269.53125 C 1010.199219 271.242188 1010.6875 272.371094 1012.238281 273.941406 C 1019.796875 281.605469 1029.015625 286.640625 1038.707031 290.921875 C 1046.257812 294.257812 1054.292969 296.394531 1061.730469 300.035156 C 1062.1875 300.253906 1062.683594 300.453125 1063.058594 300.78125 C 1064.242188 301.820312 1066.804688 301.902344 1066.53125 303.75 C 1066.292969 305.308594 1063.777344 304.238281 1062.1875 305.550781 C 1070.316406 310.527344 1078.5 315.355469 1082.492188 324.539062 C 1081.324219 325.925781 1080.066406 324.390625 1078.570312 325.003906 C 1085.726562 333.238281 1090.832031 342.707031 1096.507812 351.804688 C 1099.339844 356.34375 1101.335938 361.296875 1103.601562 366.128906 C 1104.863281 368.820312 1103.382812 368.402344 1101.0625 368.074219 C 1110.804688 380.628906 1114.171875 395.386719 1119.777344 409.121094 C 1118.511719 409.902344 1118.191406 407.894531 1116.710938 408.65625 C 1121.664062 416.820312 1126.628906 424.910156 1131.4375 433.09375 C 1131.847656 433.792969 1135.214844 435.382812 1131.207031 436.328125 C 1130.335938 436.535156 1131.695312 437.992188 1132.191406 438.738281 C 1137.363281 446.582031 1142.894531 454.207031 1147.535156 462.394531 C 1149.273438 465.464844 1150.710938 468.699219 1152.523438 472.347656 C 1149.664062 472.261719 1148.550781 469.941406 1145.992188 469.257812 C 1149.0625 474.582031 1152.683594 479.0625 1154.371094 484.472656 C 1161.488281 507.246094 1165.777344 530.253906 1159.238281 553.984375 C 1158.683594 556.007812 1158.703125 558.230469 1157.171875 560.378906 C 1155.730469 558.0625 1155.867188 555.6875 1155.730469 553.421875 C 1154.851562 538.953125 1153.59375 524.542969 1150.695312 510.296875 C 1147.3125 493.636719 1142.765625 477.445312 1133.640625 462.875 C 1133.273438 462.289062 1132.632812 461.695312 1132.976562 460.710938 C 1134.25 460.136719 1135.121094 461.824219 1136.65625 461.488281 C 1136.097656 459.320312 1134.542969 457.976562 1133.382812 456.414062 C 1126.421875 447.035156 1118.550781 438.105469 1114.71875 426.894531 C 1110.601562 414.832031 1103.0625 404.308594 1099.667969 391.976562 C 1099.003906 389.5625 1098.316406 387.152344 1098.269531 384.328125 C 1100.199219 386.136719 1102.128906 387.953125 1104.054688 389.761719 C 1104.289062 389.609375 1104.519531 389.449219 1104.753906 389.296875 C 1101.933594 383.96875 1099.316406 378.519531 1096.226562 373.347656 C 1092.25 366.699219 1087.855469 360.304688 1083.734375 353.742188 C 1083.203125 352.894531 1081.738281 351.957031 1082.789062 350.796875 C 1083.574219 349.933594 1084.542969 351.46875 1085.597656 351.277344 C 1086.328125 350.140625 1085.140625 349.699219 1084.6875 349.132812 C 1076.777344 339.21875 1070.09375 328.277344 1060.128906 320.097656 C 1059.113281 319.265625 1057.421875 318.371094 1058.039062 316.808594 C 1058.664062 315.210938 1060.511719 316.160156 1061.792969 315.898438 C 1062.234375 315.816406 1062.683594 315.808594 1063.8125 315.699219 C 1060.609375 312.960938 1057.359375 311.59375 1054.222656 310.128906 C 1048.707031 307.542969 1043.085938 305.183594 1037.539062 302.660156 C 1036.429688 302.15625 1034.667969 301.863281 1034.660156 300.492188 C 1034.652344 298.828125 1036.941406 300.101562 1037.757812 298.722656 C 1028.261719 295.042969 1019.53125 290.105469 1011.277344 282.359375 C 1018.746094 296.707031 1026.894531 309.191406 1036.675781 320.613281 C 1043.121094 328.140625 1049.1875 336.222656 1056.367188 342.828125 C 1073.046875 358.199219 1081.117188 378.550781 1090.882812 397.964844 C 1099.910156 415.921875 1110.082031 433.199219 1120.222656 450.523438 C 1126.316406 460.9375 1131.230469 471.996094 1136.402344 482.902344 C 1136.707031 483.542969 1136.867188 484.242188 1136.824219 485.054688 C 1133.527344 482.175781 1131.160156 478.628906 1128.796875 475.109375 C 1119.023438 460.554688 1109.179688 446.042969 1099.574219 431.375 C 1090.222656 417.089844 1082.851562 401.695312 1075.679688 386.265625 C 1070.679688 375.515625 1065.15625 365.035156 1058.679688 355.214844 C 1054.773438 349.292969 1048.730469 344.78125 1043.671875 339.625 C 1031.023438 326.710938 1018.882812 313.394531 1010.039062 297.445312 C 1009.300781 296.109375 1008.523438 294.785156 1007.957031 293.378906 C 1004.644531 285.113281 999.246094 278.71875 991.910156 273.582031 C 983.421875 267.632812 977.339844 259.097656 970.488281 251.46875 C 964.566406 244.882812 958.234375 240.058594 949.15625 238.800781 C 943.683594 238.046875 938.390625 235.894531 933.054688 234.246094 C 931.203125 233.671875 930.378906 233.855469 929.410156 235.878906 C 925.449219 244.140625 919.902344 244.730469 913.304688 237.585938 C 912.175781 240.640625 913.484375 242.84375 915.226562 244.851562 C 918.734375 248.898438 923.511719 250.675781 928.53125 251.710938 C 933.703125 252.78125 937.960938 255.367188 941.761719 258.839844 C 947.261719 263.863281 951.734375 269.707031 955.097656 276.332031 C 956.144531 278.382812 957.378906 279.023438 959.546875 278.894531 C 962.414062 278.726562 965.300781 278.855469 969.007812 278.855469 C 963.117188 283.261719 956.96875 284.9375 950.742188 286.390625 C 940.96875 288.664062 931.027344 290.074219 921.214844 292.179688 C 908.550781 294.898438 907.527344 304.878906 907.910156 313.226562 C 907.992188 315.035156 908.753906 315.25 910.402344 314.609375 C 921.070312 310.457031 932.621094 309.214844 943.164062 304.644531 C 943.441406 304.519531 943.867188 304.75 944.628906 304.894531 C 940.746094 310.03125 935.6875 313.058594 930.042969 315.066406 C 925.144531 316.808594 920.101562 318.164062 915.089844 319.554688 C 902.09375 323.15625 901.765625 336.257812 905.421875 344.21875 C 906.421875 346.402344 907.550781 346.589844 909.824219 345.492188 C 919.164062 340.976562 929.363281 338.707031 938.960938 334.617188 C 935.910156 339.371094 931.621094 342.523438 926.738281 344.921875 C 922.0625 347.21875 917.292969 349.347656 912.304688 350.878906 C 909.246094 351.820312 908.191406 353.664062 909.03125 356.617188 C 911.320312 364.648438 915.613281 371.730469 919.789062 378.847656 C 920.902344 380.742188 923.183594 380.96875 925.136719 381.457031 C 930.1875 382.726562 935.253906 383.910156 940.320312 385.113281 C 940.9375 385.257812 941.5625 385.464844 942.179688 385.449219 C 945.089844 385.359375 947.789062 383.769531 948.589844 381.472656 C 949.199219 379.726562 945.914062 379.574219 944.363281 378.726562 C 940.875 376.828125 937.351562 375.460938 933.195312 376.941406 C 931.859375 377.414062 929.921875 377.710938 928.554688 376.253906 C 931.667969 372.882812 931.660156 372.890625 928.835938 368.601562 C 928.417969 367.964844 928.035156 367.304688 927.691406 366.625 C 927.480469 366.195312 927.371094 365.707031 927.179688 365.136719 C 927.667969 365.011719 928.113281 364.746094 928.339844 364.875 C 935.078125 368.5625 942.472656 370.492188 949.679688 372.933594 C 955.265625 374.828125 959.484375 378.292969 961.417969 384.039062 C 963.996094 391.714844 969.335938 396.539062 976.75 399.371094 C 979.003906 400.230469 981.183594 401.277344 983.367188 402.308594 C 985 403.078125 986.769531 404.09375 987.242188 405.792969 C 988.523438 410.433594 991.492188 414.792969 990.1875 419.921875 C 989.507812 422.589844 991.941406 425.398438 988.625 428.132812 C 996.703125 427.886719 1001.136719 431.984375 1004.828125 437.335938 C 1007.910156 441.800781 1010.269531 446.796875 1010.917969 452.015625 C 1013.078125 469.402344 1015.441406 486.777344 1015.457031 504.382812 C 1015.464844 516.058594 1015.480469 527.804688 1017.59375 539.363281 C 1019.082031 547.484375 1020.90625 555.535156 1022.46875 563.640625 C 1022.859375 565.652344 1022.828125 567.753906 1022.605469 569.890625 C 1017.539062 561.585938 1013.847656 552.804688 1011.421875 543.476562 C 1007.804688 529.566406 1007.957031 515.257812 1006.980469 501.078125 C 1005.914062 485.625 1005.949219 470.050781 1001.402344 455.03125 C 999.59375 449.070312 997.246094 443.355469 994.171875 437.882812 C 992.269531 434.503906 989.652344 434.296875 986.570312 434.625 C 985.082031 434.785156 983.640625 435.367188 982.269531 435.082031 C 981.300781 433.886719 985.199219 429.398438 979.535156 431.992188 C 979.710938 428.484375 981.878906 425.878906 982.285156 422.78125 C 978.828125 422.277344 978.8125 422.269531 980.4375 419.066406 C 981.445312 417.089844 981.613281 414.953125 981.878906 412.800781 C 982.183594 410.367188 981.3125 409.105469 978.910156 408.414062 C 974.53125 407.144531 970.160156 405.863281 966.167969 403.476562 C 959.492188 399.46875 956.449219 392.988281 953.96875 386.167969 C 953.582031 386.167969 953.207031 386.066406 953.113281 386.183594 C 948.5 392.011719 942.667969 393.722656 935.492188 391.828125 C 931.082031 390.667969 926.539062 390.003906 922.039062 389.210938 C 917.46875 388.402344 914.042969 385.9375 911.808594 381.976562 C 907.925781 375.125 903.550781 368.273438 902.964844 360.273438 C 902.554688 354.65625 901.371094 349.875 898.402344 344.941406 C 893.734375 337.199219 895.738281 326.46875 901.957031 319.90625 C 902.683594 319.140625 903.429688 318.585938 903.019531 317.347656 C 900.019531 308.328125 901.003906 299.84375 907.160156 291.585938 C 894.113281 293.957031 882.234375 292.625 870.738281 286.839844 C 869.804688 287.175781 871.515625 288.953125 870.011719 289.121094 C 869.050781 289.226562 868.609375 288.175781 867.945312 287.609375 C 866.25 286.160156 865.730469 282.816406 861.984375 284.496094 C 861.308594 284.800781 859.710938 281.09375 857.652344 279.773438 C 850.890625 275.429688 847.144531 268.914062 845.390625 261.191406 C 845.140625 260.097656 845.140625 258.953125 845.015625 257.816406 C 846.695312 257.519531 846.75 258.871094 847.191406 259.601562 C 850.167969 264.53125 853.851562 268.859375 857.925781 272.910156 C 860.847656 275.820312 864.847656 277.710938 868.15625 278.957031 C 878.832031 282.96875 889.421875 288.945312 901.675781 285.59375 C 914.058594 282.207031 925.128906 276.789062 933.363281 266.417969 C 935.695312 263.472656 934.507812 262.214844 931.917969 261.25 C 927.996094 259.785156 923.886719 258.816406 920.023438 257.222656 C 914.1875 254.804688 909.550781 250.964844 907.777344 244.570312 C 907.429688 243.308594 906.886719 242.859375 905.757812 242.882812 C 894.167969 243.113281 883.179688 239.59375 871.996094 237.34375 C 868.480469 236.632812 865.191406 237.464844 861.808594 237.832031 C 854.761719 238.59375 847.847656 238.320312 841.429688 234.792969 C 841.027344 234.574219 840.714844 234.191406 840.265625 233.800781 C 841.660156 232.632812 843.101562 233.167969 844.390625 233.199219 C 853.667969 233.414062 862.582031 231.800781 871.195312 228.300781 C 875.65625 226.484375 880.222656 224.875 884.804688 223.386719 C 889.164062 221.972656 893.75 221.066406 895.953125 214.839844 C 897.386719 220.8125 901.292969 221.988281 905.253906 223.101562 C 905.496094 223.171875 905.734375 223.261719 905.972656 223.363281 C 913.058594 226.398438 920.117188 229 928.171875 227.507812 C 931.738281 226.84375 935.527344 227.71875 939.023438 229.03125 C 941.539062 229.980469 942.113281 228.828125 942.234375 226.613281 C 942.761719 217.011719 940.890625 207.925781 936.710938 199.269531 C 934.484375 194.644531 931.652344 190.257812 930.746094 185.023438 C 936.824219 189.921875 941.722656 195.699219 944.675781 203.003906 C 945.066406 202.980469 945.453125 202.957031 945.835938 202.933594 C 945.835938 199.78125 945.753906 196.628906 945.867188 193.484375 C 945.957031 191 945.285156 187.535156 947.40625 186.449219 C 949.359375 185.449219 951.460938 188.386719 953.457031 189.632812 C 955.375 190.824219 957.144531 192.242188 959.136719 193.675781 C 960.324219 191.96875 959.257812 190.5625 958.898438 189.265625 C 958.195312 186.738281 959.179688 186.238281 961.347656 186.863281 C 964.101562 187.65625 966.839844 188.511719 970.402344 189.578125 C 969.273438 187.480469 968.496094 186.097656 967.785156 184.6875 C 967.351562 183.824219 966.34375 182.941406 967.109375 181.933594 C 967.824219 180.976562 969.015625 181.503906 969.976562 181.640625 C 976.140625 182.519531 982.09375 184.289062 988.425781 186.664062 C 987.730469 182.6875 985.585938 179.855469 984.257812 176.703125 C 983.816406 175.652344 983.273438 174.636719 982.765625 173.613281 C 981.894531 171.875 982.429688 171.347656 984.3125 171.585938 C 987.800781 172.027344 990.492188 174.324219 994.703125 176.09375 C 992.300781 170.234375 990.179688 165.296875 988.304688 160.265625 C 987.890625 159.152344 985.289062 157.480469 988.707031 156.320312 C 989.675781 155.992188 988.441406 154.558594 987.96875 153.765625 C 983.3125 146.027344 979.996094 137.609375 975.683594 129.695312 C 975.277344 128.949219 974.394531 128.070312 975.148438 127.308594 C 976.125 126.316406 977.011719 127.40625 977.765625 127.949219 C 985.464844 133.449219 989.578125 141.371094 992.492188 150.0625 C 993.339844 152.589844 994.125 155.140625 994.8125 157.710938 C 995.15625 159.007812 996.984375 160.542969 994.09375 161.566406 C 993.070312 161.921875 994.445312 163.191406 994.820312 163.984375 C 997.695312 169.972656 999.390625 176.222656 999.410156 183.175781 C 995.199219 181.925781 992.460938 178.886719 988.242188 176.773438 C 991.011719 182.277344 993.902344 187.023438 993.53125 193.058594 C 987.042969 191.105469 980.6875 189.183594 974.195312 187.226562 C 974.066406 188.96875 975.164062 190.007812 975.539062 191.273438 C 975.949219 192.691406 977.398438 194.296875 976.414062 195.523438 C 975.347656 196.859375 973.5625 195.628906 972.179688 195.226562 C 969.648438 194.476562 967.183594 193.484375 964.460938 192.507812 C 963.894531 194.378906 964.925781 195.996094 964.925781 197.667969 C 964.925781 198.773438 965.605469 200.171875 964.597656 200.925781 C 963.574219 201.691406 962.453125 200.710938 961.421875 200.269531 C 957.585938 198.613281 954.425781 195.828125 950.582031 193.378906 C 951.0625 199.140625 951.527344 204.6875 949.957031 209.671875 C 947.972656 215.984375 948.742188 222.5625 946.898438 228.765625 C 946.332031 230.664062 947.078125 231.261719 948.703125 231.648438 C 951.046875 232.214844 953.335938 233.0625 955.695312 233.511719 C 964.667969 235.222656 971.273438 240.394531 976.765625 247.402344 C 983.457031 255.941406 991.058594 263.570312 999.753906 270.105469 C 1001.707031 271.570312 1002.792969 272.035156 1003.585938 269.082031 C 1005.546875 261.800781 1010.566406 255.574219 1010.972656 247.738281 C 1010.992188 247.363281 1011.101562 246.714844 1011.277344 246.675781 C 1016.113281 245.652344 1012.925781 242.457031 1012.726562 240.449219 C 1012.253906 235.71875 1011.175781 231.046875 1010.328125 226.261719 C 1012.542969 226.046875 1013.671875 227.71875 1016.058594 227.863281 C 1014.183594 221.867188 1012.648438 216.050781 1010.535156 210.457031 C 1008.230469 204.351562 1006.292969 198.21875 1005.820312 191.691406 C 1005.667969 189.546875 1005.074219 187.632812 1006.613281 185.3125 C 1007.894531 183.382812 1006.46875 180.351562 1005.796875 177.957031 C 1003.523438 169.835938 1002.546875 161.519531 1001.59375 153.183594 C 1001.3125 150.742188 1001.6875 149.796875 1004.636719 152.019531 C 1000.257812 142.402344 998.542969 132.855469 995.628906 123.691406 C 992.902344 115.121094 989.699219 106.671875 985.433594 98.691406 C 984.953125 97.789062 983.289062 96.859375 985.785156 95.957031 C 987.089844 95.484375 985.679688 94.21875 985.136719 93.53125 C 982.640625 90.351562 980.054688 87.238281 977.53125 84.128906 C 978.347656 82.589844 979.804688 83.757812 980.726562 82.949219 C 980.636719 82.65625 980.613281 82.246094 980.398438 82 C 975.996094 77.078125 971.546875 72.203125 967.175781 67.257812 C 966.351562 66.328125 964.789062 65.394531 966.503906 63.816406 C 967.589844 62.824219 966.300781 62.59375 965.789062 62.351562 C 964.078125 61.519531 962.226562 60.9375 960.59375 59.984375 C 959.425781 59.296875 957.011719 59.3125 958.304688 56.621094 C 958.8125 55.542969 957.28125 55.4375 956.546875 55.140625 C 952.777344 53.621094 948.871094 52.382812 945.234375 50.605469 C 942.808594 49.421875 939.34375 48.195312 942.488281 43.632812 C 936.070312 43.828125 930.707031 40.761719 924.664062 40.96875 C 922.609375 41.035156 921.199219 39.074219 919.695312 37.800781 C 916.78125 35.320312 914.753906 32.125 913.113281 28.179688 C 912 29.605469 911.28125 30.605469 910.480469 31.527344 C 908.09375 34.3125 906.488281 34.015625 904.996094 30.574219 C 903.460938 27.042969 903.703125 23.386719 904.492188 19.242188 C 901.300781 20.675781 899.515625 23.125 897.28125 24.964844 C 892.664062 28.757812 891.75 28.492188 890.03125 22.867188 C 889.332031 20.5625 889.75 18.164062 889.285156 15.328125 C 885.523438 19.28125 882.144531 22.828125 878.753906 26.363281 C 877.960938 27.1875 877.144531 27.988281 876.285156 28.742188 C 872.925781 31.679688 872.917969 31.671875 870.949219 27.355469 C 867.507812 30.375 864.222656 33.472656 860.183594 35.597656 C 857.691406 36.910156 855.171875 38.28125 852.425781 38.632812 C 842.085938 39.953125 832.503906 44.457031 822.144531 45.234375 C 821.792969 47.339844 824.90625 46.777344 824.226562 48.539062 C 823.640625 50.058594 821.984375 50.554688 820.601562 51.125 C 814.511719 53.660156 808.394531 56.09375 802.359375 58.535156 C 802.117188 60.429688 804.976562 59.9375 804.328125 61.40625 C 803.871094 62.449219 802.640625 63.242188 801.613281 63.9375 C 798.042969 66.351562 794.417969 68.675781 790.296875 71.371094 C 792.835938 72.011719 793.539062 72.730469 791.320312 74.394531 C 788.007812 76.875 784.988281 79.742188 781.910156 82.382812 C 782.757812 83.808594 783.886719 82.253906 784.613281 83.445312 C 782.132812 86.824219 779.53125 90.21875 777.136719 93.753906 C 776.679688 94.425781 774.175781 96.003906 777.472656 96.585938 C 778.394531 96.746094 778.027344 97.597656 777.730469 98.109375 C 772.945312 106.453125 768.710938 115.296875 758.136719 119.394531 C 760.273438 115.601562 757.6875 115.441406 755.574219 114.65625 C 749.402344 112.34375 743.382812 111.335938 737.285156 115.027344 C 732.824219 117.730469 730.914062 120.140625 732.21875 124.972656 C 735.210938 135.984375 733.449219 146.882812 732.738281 157.910156 C 731.914062 170.730469 735.203125 182.589844 743.535156 192.714844 C 744.417969 193.792969 745.441406 194.753906 746.441406 195.730469 C 746.882812 196.15625 747.441406 196.46875 748.355469 197.132812 C 750.921875 186.074219 749.234375 174.902344 752.132812 164.234375 C 750.257812 164.082031 750.386719 166.25 748.578125 166.234375 C 747.691406 159.03125 748.859375 152.117188 751.683594 145.53125 C 752.804688 142.921875 752.539062 141.28125 750.644531 139.175781 C 747.5 135.664062 744.609375 131.949219 740.65625 129.277344 C 739.414062 128.4375 738.261719 127.300781 736.570312 127.589844 C 735.867188 127.710938 735.058594 128.316406 734.644531 127.253906 C 734.28125 126.316406 734.707031 125.582031 735.46875 124.933594 C 737.238281 123.4375 739.269531 123.5625 741.253906 124.101562 C 745.03125 125.132812 748.171875 127.246094 750.722656 130.214844 C 752.292969 132.046875 753.820312 133.910156 755.484375 135.910156 C 758.0625 133.023438 759.128906 129.132812 763.171875 126.453125 C 760.257812 135.414062 757.605469 143.570312 754.964844 151.667969 C 756.132812 152.75 756.910156 150.683594 757.773438 151.621094 C 758.464844 152.375 757.832031 153.308594 757.847656 154.15625 C 757.953125 162.527344 755.980469 170.789062 756.855469 179.238281 C 757.375 184.175781 755.925781 189.066406 754.894531 193.921875 C 754.628906 195.179688 753.421875 196.90625 756.472656 196.773438 C 757.976562 196.714844 757.296875 198.613281 757.214844 199.636719 C 756.679688 206.335938 753.363281 212.226562 751.628906 218.523438 C 749.578125 225.972656 746.546875 233.449219 747.417969 242.019531 C 748.929688 240.226562 750.179688 238.753906 751.421875 237.273438 C 751.21875 245.21875 749.097656 252.78125 749.707031 260.785156 C 750.773438 258.320312 751.828125 255.847656 752.902344 253.382812 C 753.246094 252.589844 753.453125 251.429688 754.5 251.492188 C 755.75 251.566406 755.78125 252.84375 755.984375 253.796875 C 757.28125 259.648438 756.816406 265.394531 755.085938 271.097656 C 754.742188 272.234375 753.636719 273.238281 754.300781 274.707031 C 755.925781 274.292969 756.566406 272.742188 757.75 271.867188 C 758.527344 271.285156 758.945312 269.828125 760.082031 270.21875 C 761.433594 270.691406 760.914062 272.234375 760.929688 273.238281 C 761.066406 281.6875 758.046875 289.136719 753.40625 296.027344 C 750.011719 301.0625 745.738281 305.382812 741.140625 310.488281 C 743.878906 310.488281 745.800781 310.488281 747.59375 310.488281 C 748.242188 312.089844 747.175781 312.703125 746.632812 313.464844 C 739.214844 323.972656 730.152344 333.105469 722.042969 342.996094 C 714.121094 352.660156 703.324219 358.96875 695.574219 368.554688 C 694.726562 369.601562 692.324219 370.210938 694.460938 372.40625 C 695.300781 373.277344 693.734375 374.085938 693.171875 374.828125 C 686.226562 383.929688 680.925781 394.042969 675.773438 404.460938 Z M 1006.386719 154.996094 C 1012.253906 164.296875 1010.261719 175.523438 1014.28125 185.128906 C 1018.585938 179.765625 1019.761719 175.988281 1019.128906 169.363281 C 1019.035156 168.417969 1019.296875 167.53125 1020.019531 166.960938 C 1021.035156 166.167969 1021.386719 165.105469 1021.363281 163.960938 C 1021.242188 157.320312 1022.195312 150.476562 1018.769531 144.347656 C 1015.351562 138.234375 1015.425781 132.246094 1018.753906 126.269531 C 1020.449219 123.226562 1019.433594 120.90625 1017.320312 118.777344 C 1013.597656 115.03125 1009.148438 114 1004.035156 115.328125 C 1002.578125 115.707031 1002.113281 116.328125 1002.515625 117.722656 C 1003.464844 120.972656 1004.394531 124.234375 1005.417969 127.765625 C 1007.101562 126.445312 1008.390625 125.210938 1009.886719 124.324219 C 1012.007812 123.066406 1014.296875 122.332031 1016.707031 123.753906 C 1017.304688 124.101562 1017.699219 124.574219 1017.585938 125.285156 C 1017.425781 126.246094 1016.722656 125.820312 1016.136719 125.851562 C 1009.863281 126.210938 1005.417969 132.328125 1007.050781 138.242188 C 1008.886719 144.921875 1010.667969 151.613281 1012.613281 158.808594 C 1009.902344 157.789062 1008.539062 156.054688 1006.386719 154.996094 Z M 949.558594 279.527344 C 944.730469 274.035156 941.386719 268.5625 936.148438 263.769531 C 935.414062 272.46875 930.410156 277.878906 924.566406 282.894531 C 932.691406 281.78125 940.585938 280.351562 949.558594 279.527344 Z M 880.9375 233.480469 C 889.523438 235.070312 897.1875 236.664062 904.996094 237.472656 C 906.09375 237.585938 907.472656 237.890625 907.605469 236.191406 C 907.75 234.273438 909.441406 233.277344 910.183594 231.558594 C 900.425781 227.855469 891.054688 228.46875 880.9375 233.480469 Z M 927.683594 233.785156 C 924.152344 233.261719 921.054688 233.429688 917.980469 233.933594 C 917.109375 234.078125 916.261719 234.480469 916.179688 235.566406 C 916.101562 236.59375 916.753906 237.082031 917.574219 237.5625 C 921.984375 240.128906 923.902344 239.496094 927.683594 233.785156 Z M 927.683594 233.785156 " fill-opacity="1" fill-rule="nonzero"/></g><path fill="#000000" d="M 796.722656 115.578125 C 797.660156 115.378906 799.078125 114.714844 798.398438 116.671875 C 797.957031 117.953125 797.003906 119.066406 796.027344 120.675781 C 801.527344 119.113281 806.824219 118.226562 811.941406 116.183594 C 810.859375 117.339844 809.777344 118.507812 808.273438 120.128906 C 812.5 119.433594 815.574219 116.808594 819.121094 116.328125 C 825.113281 115.527344 826.445312 110.65625 829.214844 106.671875 C 827.484375 106.253906 827.332031 108.175781 826.097656 108.109375 C 827.691406 102.140625 837.128906 95.226562 845.214844 94.089844 C 853.1875 92.976562 861.007812 96.441406 865.097656 103.316406 C 859.636719 100.394531 854.539062 97.851562 848.382812 99.027344 C 859.605469 99.996094 863.625 109.488281 869.632812 116.609375 C 871.402344 118.714844 870.691406 120.683594 868.074219 121.125 C 859.101562 122.644531 850.328125 125.574219 841.003906 124.636719 C 835.761719 124.109375 831.0625 122.453125 827.132812 119.011719 C 825.273438 117.378906 823.996094 117.289062 821.984375 118.851562 C 818.582031 121.484375 814.988281 124.042969 810.492188 124.460938 C 808.273438 124.667969 805.863281 125.1875 804.03125 123.234375 C 802.949219 122.082031 802.175781 123.035156 801.429688 123.5625 C 794.289062 128.519531 788.0625 134.414062 783.019531 141.503906 C 783.84375 142.648438 785.078125 141.511719 785.949219 142.394531 C 785.917969 142.640625 785.972656 143.042969 785.804688 143.304688 C 784.628906 145.113281 783.390625 146.875 782.195312 148.675781 C 781.644531 149.507812 780.210938 150.261719 782.46875 151.050781 C 783.734375 151.492188 782.429688 152.515625 782.066406 153.179688 C 780.25 156.511719 778.386719 159.816406 776.304688 163.5625 C 779.179688 163.335938 780.140625 160.070312 783.363281 160.566406 C 778.851562 166.785156 775.5625 173.324219 772.726562 181.023438 C 777.242188 177.308594 780.890625 173.605469 786.78125 172.539062 C 783.035156 179.007812 779.601562 184.9375 775.71875 191.65625 C 775.128906 188.082031 776.113281 185.59375 776.535156 182.773438 C 773.847656 183.414062 772.582031 185.800781 769.804688 186.695312 C 768.78125 177.4375 771.285156 168.785156 772.765625 159.769531 C 771.78125 159.429688 771.054688 161.089844 769.78125 160.96875 C 769.101562 159.792969 770.117188 158.871094 770.316406 157.839844 C 771.308594 152.75 773.648438 148.109375 774.886719 143.019531 C 776.480469 136.441406 781.644531 131.4375 786.949219 127.207031 C 790.769531 124.15625 794.890625 121.546875 796.234375 116.433594 C 796.394531 116.128906 796.554688 115.855469 796.722656 115.578125 Z M 836.273438 106.65625 C 832.335938 109.007812 830.375 111.785156 828.195312 114.351562 C 827.117188 115.617188 827.652344 116.417969 828.820312 117.035156 C 831.902344 118.675781 834.984375 120.347656 839.144531 120.296875 C 835.914062 116.351562 834.328125 112.296875 836.273438 106.65625 Z M 845.351562 105.476562 C 843.308594 105.589844 842.085938 106.664062 842.042969 108.503906 C 841.996094 110.519531 843.171875 111.832031 845.332031 111.734375 C 847.285156 111.648438 848.296875 110.429688 848.273438 108.527344 C 848.253906 106.636719 847.222656 105.527344 845.351562 105.476562 Z M 861.628906 111.632812 C 861.085938 114.273438 859.8125 116.699219 860.535156 117.976562 C 861.351562 119.394531 863.503906 117.386719 865.722656 117.433594 C 864.304688 115.417969 863.222656 113.890625 861.628906 111.632812 Z M 861.628906 111.632812 " fill-opacity="1" fill-rule="nonzero"/><path fill="#000000" d="M 857.484375 321.898438 C 857.09375 324.101562 855.636719 324.902344 854.835938 326.148438 C 854.105469 327.277344 852.976562 328.183594 852.730469 329.894531 C 856.171875 329.78125 859.011719 328.390625 861.878906 327.132812 C 863.503906 326.421875 865.039062 325.484375 866.695312 324.875 C 867.671875 324.507812 868.769531 323.277344 869.777344 324.292969 C 870.613281 325.148438 870.121094 326.492188 869.828125 327.582031 C 869.265625 329.742188 868.617188 331.878906 867.839844 334.632812 C 873.507812 332.199219 878.429688 329.71875 882.945312 326.484375 C 886.300781 324.078125 886.261719 324.042969 887.078125 328.359375 C 887.140625 328.703125 887.355469 329.015625 887.53125 329.421875 C 889.957031 328.871094 891.222656 326.230469 893.777344 326.078125 C 894.089844 330.605469 889.246094 337.066406 885.074219 337.5625 C 882.007812 337.929688 884.019531 335.078125 882.699219 333.902344 C 881.152344 334.0625 879.9375 335.441406 878.496094 336.304688 C 874.382812 338.761719 869.914062 339.984375 865.175781 340.457031 C 862.136719 340.761719 861.480469 339.691406 862.808594 337.03125 C 863.359375 335.921875 863.695312 334.703125 864.320312 333.007812 C 861.527344 333.878906 859.1875 334.609375 856.851562 335.34375 C 854.632812 336.039062 852.351562 336.113281 850.0625 335.929688 C 848.3125 335.792969 845.992188 336.230469 845.117188 334.625 C 844.070312 332.734375 846.816406 331.839844 847.382812 330.039062 C 846.460938 329.085938 845.316406 329.75 844.339844 329.910156 C 831.292969 332.136719 818.96875 329.703125 808.5625 321.84375 C 801.070312 316.195312 793.433594 310.335938 787.757812 302.566406 C 784.429688 298.011719 782.1875 292.996094 780.996094 286.601562 C 784.871094 289.707031 787.542969 292.867188 790.304688 295.921875 C 796.546875 302.820312 802.78125 309.71875 812.050781 312.679688 C 812.292969 312.753906 812.734375 312.898438 812.730469 312.953125 C 812.035156 317.59375 816.359375 316.921875 818.574219 318.203125 C 821.289062 319.777344 824.378906 320.761719 827.402344 321.714844 C 830.542969 322.707031 833.816406 323.195312 837.136719 323.347656 C 842.613281 323.597656 848.046875 323.261719 853.457031 322.363281 C 854.660156 322.171875 855.90625 322.082031 857.484375 321.898438 Z M 857.484375 321.898438 " fill-opacity="1" fill-rule="nonzero"/><path fill="#000000" d="M 927.503906 99.109375 C 921.488281 98.507812 916.722656 100.820312 911.511719 104.261719 C 920.628906 89.722656 941.449219 91.9375 950.085938 107.527344 C 948.613281 107.605469 948.148438 105.980469 946.917969 105.71875 C 949.558594 112.632812 954.265625 116.511719 963.597656 119.417969 C 964.15625 118.113281 962.011719 117.746094 962.660156 116.488281 C 965.972656 116.53125 971.082031 120.21875 971.953125 123.4375 C 972.632812 125.933594 970.746094 126.1875 969.0625 126.132812 C 963.8125 125.964844 959.035156 124.179688 955.167969 120.707031 C 952.40625 118.21875 950.726562 118.035156 947.492188 120.492188 C 938.953125 126.988281 929.1875 125.964844 919.4375 123.539062 C 916.25 122.746094 913.488281 120.402344 909.679688 121.804688 C 907.824219 122.492188 905.878906 118.5625 907.460938 117.089844 C 910.410156 114.34375 912.027344 110.703125 914.5 107.664062 C 917.988281 103.390625 917.941406 103.355469 927.503906 99.109375 Z M 937.726562 120.722656 C 941.792969 119.945312 944.5625 118.828125 947.09375 117.144531 C 947.949219 116.578125 949.398438 115.9375 948.109375 114.535156 C 945.84375 112.074219 944.15625 109 940.230469 106.972656 C 942.675781 112.230469 940.746094 116.167969 937.726562 120.722656 Z M 922.296875 109.054688 C 922.648438 110.863281 923.703125 112.144531 925.570312 112.007812 C 927.496094 111.863281 928.851562 110.65625 928.808594 108.550781 C 928.761719 106.605469 927.554688 105.453125 925.65625 105.613281 C 923.75 105.78125 922.496094 106.976562 922.296875 109.054688 Z M 912.035156 117.355469 C 913.851562 117.914062 915.285156 118.988281 917.445312 118.960938 C 916.789062 116.523438 916.203125 114.335938 915.410156 111.40625 C 914.066406 113.769531 913.097656 115.480469 912.035156 117.355469 Z M 912.035156 117.355469 " fill-opacity="1" fill-rule="nonzero"/><path fill="#000000" d="M 792.898438 198.148438 C 793.632812 194.59375 795.453125 191.984375 796.964844 188.328125 C 789.902344 191.3125 783.4375 193.625 776.609375 194.804688 C 783.988281 187.738281 793.089844 184.929688 803.34375 183.832031 C 802.464844 187.359375 799.964844 189.539062 798.390625 193.082031 C 802.199219 191.867188 805.441406 190.808594 808.707031 189.816406 C 809.777344 189.496094 811.042969 188.839844 811.980469 189.625 C 813.195312 190.640625 812.226562 191.976562 811.90625 193.144531 C 811.484375 194.699219 810.980469 196.242188 810.226562 198.75 C 815.5 196.257812 819.808594 193.8125 823.867188 190.851562 C 825.460938 189.695312 827.1875 187.097656 828.820312 187.96875 C 830.628906 188.921875 829.683594 191.90625 829.988281 194.003906 C 830.238281 195.738281 828.1875 197.652344 831.03125 199.484375 C 832.03125 200.125 829.636719 203.8125 828.078125 205.511719 C 826.15625 207.613281 823.753906 209.34375 820.441406 210.566406 C 821.074219 205.71875 823.480469 201.789062 824.441406 196.929688 C 819.175781 200.203125 814.285156 203.03125 808.625 204.132812 C 804.550781 204.925781 804.527344 204.941406 805.769531 200.820312 C 806.425781 198.652344 807.195312 196.523438 808.144531 193.699219 C 803.0625 195.601562 798.453125 197.578125 792.898438 198.148438 Z M 792.898438 198.148438 " fill-opacity="1" fill-rule="nonzero"/><path fill="#000000" d="M 924.375 180.863281 C 923.519531 178.542969 922.75 176.605469 922.09375 174.621094 C 919.171875 165.808594 912.976562 158.824219 908.71875 150.757812 C 906.292969 146.15625 903.53125 141.738281 902.21875 136.625 C 901.804688 135.03125 901.378906 133.464844 901.84375 131.765625 C 903.316406 131.855469 903.621094 133.136719 904.140625 134.03125 C 909.113281 142.609375 914.953125 150.613281 920.445312 158.847656 C 923.886719 164 926.273438 169.546875 926.007812 175.933594 C 925.9375 177.558594 925.882812 179.164062 924.375 180.863281 Z M 924.375 180.863281 " fill-opacity="1" fill-rule="nonzero"/><path fill="#000000" d="M 887.804688 192.808594 C 884.644531 191.457031 883.609375 188.785156 882.671875 186.238281 C 881.648438 183.464844 880.136719 181.964844 877.039062 181.421875 C 872.867188 180.695312 869.644531 178.269531 867.953125 174.125 C 867.210938 172.316406 867.183594 170.667969 868.410156 169.121094 C 869.332031 167.953125 870.1875 166.1875 871.835938 166.515625 C 873.628906 166.875 872.308594 168.660156 872.5625 169.785156 C 873.101562 172.132812 874.332031 173.867188 876.757812 174.09375 C 883.488281 174.722656 885.964844 179.164062 886.898438 185.039062 C 887.292969 187.511719 887.484375 190.015625 887.804688 192.808594 Z M 887.804688 192.808594 " fill-opacity="1" fill-rule="nonzero"/><path fill="#000000" d="M 911.410156 163.832031 C 918.789062 170.21875 917.566406 178.222656 909.351562 180.824219 C 906.039062 181.878906 904.566406 183.527344 903.867188 186.648438 C 903.40625 188.6875 902.722656 190.746094 900.972656 192.28125 C 899.164062 182.816406 900.042969 175.84375 909.359375 173.386719 C 910.753906 173.019531 911.457031 172.109375 911.425781 170.617188 C 911.378906 168.625 911.410156 166.640625 911.410156 163.832031 Z M 911.410156 163.832031 " fill-opacity="1" fill-rule="nonzero"/><path fill="#000000" d="M 879.847656 91.722656 C 882.839844 92.851562 885.003906 93.449219 886.964844 94.464844 C 889.71875 95.882812 892.144531 95.554688 894.914062 94.324219 C 898.667969 92.65625 902.277344 90.359375 907.390625 90.3125 C 903.285156 94.242188 899.242188 96.980469 894.417969 98.5 C 892.800781 99.011719 892.558594 99.332031 892.453125 101.539062 C 892.246094 105.949219 892.4375 110.558594 891.101562 116.089844 C 888.949219 110.984375 889.035156 106.613281 889.523438 102.421875 C 889.820312 99.859375 889.117188 98.925781 887.027344 97.949219 C 884.449219 96.746094 882.105469 95.058594 879.847656 91.722656 Z M 879.847656 91.722656 " fill-opacity="1" fill-rule="nonzero"/><path fill="#000000" d="M 867.554688 126.835938 C 866.113281 135.28125 846.710938 145.410156 837.386719 144.476562 C 848.007812 140.007812 857.285156 133.175781 867.554688 126.835938 Z M 867.554688 126.835938 " fill-opacity="1" fill-rule="nonzero"/><path fill="#000000" d="M 911.761719 127.566406 C 920.003906 133.742188 928.738281 139.066406 938.367188 144.082031 C 929.457031 145.242188 915.195312 136.40625 911.761719 127.566406 Z M 911.761719 127.566406 " fill-opacity="1" fill-rule="nonzero"/><path fill="#000000" d="M 857.117188 178.519531 C 854.660156 167.3125 863.992188 161.648438 868.441406 153.652344 C 867.355469 163.160156 859.804688 169.675781 857.117188 178.519531 Z M 857.117188 178.519531 " fill-opacity="1" fill-rule="nonzero"/><path fill="#000000" d="M 861.414062 124.484375 C 854.660156 131.804688 838.441406 132.679688 831.589844 126.324219 C 842.453125 129.765625 851.898438 127.148438 861.414062 124.484375 Z M 861.414062 124.484375 " fill-opacity="1" fill-rule="nonzero"/><path fill="#000000" d="M 840.898438 69.011719 C 848.542969 68.824219 855.859375 69.640625 862.621094 75.859375 C 853.945312 75.796875 847.351562 72.601562 840.898438 69.011719 Z M 840.898438 69.011719 " fill-opacity="1" fill-rule="nonzero"/><path fill="#000000" d="M 936.503906 70.136719 C 929.714844 73.554688 923.121094 75.933594 915.753906 76.460938 C 918.269531 71.546875 929.53125 68.027344 936.503906 70.136719 Z M 936.503906 70.136719 " fill-opacity="1" fill-rule="nonzero"/><path fill="#000000" d="M 915.089844 124.109375 C 920.796875 125.546875 925.289062 127.207031 930.003906 128.003906 C 934.710938 128.789062 939.28125 127.933594 944.121094 127.027344 C 939.417969 132.640625 923.023438 132.144531 915.089844 124.109375 Z M 915.089844 124.109375 " fill-opacity="1" fill-rule="nonzero"/><path fill="#000000" d="M 989.378906 289.777344 C 986.136719 288.945312 984.449219 287.144531 982.4375 285.9375 C 979.933594 284.441406 977.460938 282.910156 974.515625 282.4375 C 973.667969 282.296875 972.53125 282.464844 972.570312 281.214844 C 972.601562 280.167969 973.648438 279.832031 974.484375 279.652344 C 977.140625 279.0625 979.828125 278.964844 982.117188 280.710938 C 985.039062 282.945312 987.296875 285.785156 989.378906 289.777344 Z M 989.378906 289.777344 " fill-opacity="1" fill-rule="nonzero"/><path fill="#000000" d="M 820.441406 222.4375 C 821.867188 215.851562 825.113281 210.96875 830.375 207.125 C 831.367188 212.578125 826.644531 219.988281 820.441406 222.4375 Z M 820.441406 222.4375 " fill-opacity="1" fill-rule="nonzero"/><path fill="#000000" d="M 847.839844 75.707031 C 841.570312 75.8125 835.425781 75.261719 829.5 73.234375 C 828.726562 72.964844 827.5 72.867188 827.652344 71.738281 C 827.78125 70.792969 828.886719 71.097656 829.589844 71.042969 C 836.160156 70.570312 842.429688 71.386719 847.839844 75.707031 Z M 847.839844 75.707031 " fill-opacity="1" fill-rule="nonzero"/><path fill="#000000" d="M 813.78125 80.535156 C 820.328125 77.078125 827.027344 74.890625 834.351562 77.957031 C 827.707031 80.421875 820.738281 80.484375 813.78125 80.535156 Z M 813.78125 80.535156 " fill-opacity="1" fill-rule="nonzero"/><path fill="#000000" d="M 927.867188 76.894531 C 933.589844 72.066406 942.050781 70.425781 949.019531 72.585938 C 942.226562 75.683594 935.636719 76.285156 927.867188 76.894531 Z M 927.867188 76.894531 " fill-opacity="1" fill-rule="nonzero"/><path fill="#000000" d="M 857.628906 68.730469 C 863.199219 69.089844 867.777344 71.484375 871.628906 75.332031 C 872.261719 75.964844 873.058594 76.78125 872.5 77.621094 C 871.917969 78.492188 870.859375 77.964844 870.066406 77.644531 C 865.230469 75.707031 860.964844 72.933594 857.628906 68.730469 Z M 857.628906 68.730469 " fill-opacity="1" fill-rule="nonzero"/><path fill="#000000" d="M 823.1875 82.933594 C 816.65625 85.847656 810.492188 88.839844 803.542969 90.699219 C 806.761719 85.214844 817.648438 80.886719 823.1875 82.933594 Z M 823.1875 82.933594 " fill-opacity="1" fill-rule="nonzero"/><path fill="#000000" d="M 920.054688 69.171875 C 916.523438 73.84375 911.746094 76.589844 906.320312 78.363281 C 905.796875 78.535156 905.214844 78.421875 905.132812 77.84375 C 905.0625 77.40625 905.246094 76.8125 905.535156 76.46875 C 909.328125 71.964844 914.234375 69.667969 920.054688 69.171875 Z M 920.054688 69.171875 " fill-opacity="1" fill-rule="nonzero"/><path fill="#000000" d="M 970.351562 90.695312 C 963.132812 89.570312 957.472656 86.023438 951.382812 83.167969 C 956.367188 81.246094 964.972656 84.582031 970.351562 90.695312 Z M 970.351562 90.695312 " fill-opacity="1" fill-rule="nonzero"/><path fill="#000000" d="M 954.007812 320.722656 C 956.152344 327.078125 953.542969 332.191406 949.398438 337.9375 C 948.574219 330.933594 951.957031 325.996094 954.007812 320.722656 Z M 954.007812 320.722656 " fill-opacity="1" fill-rule="nonzero"/><path fill="#000000" d="M 941.875 78.238281 C 948.652344 76.070312 955 77.035156 961.003906 80.652344 C 954.433594 81.414062 948.109375 80.078125 941.875 78.238281 Z M 941.875 78.238281 " fill-opacity="1" fill-rule="nonzero"/><path fill="#000000" d="M 870.714844 70.15625 C 875.902344 72.1875 879.214844 74.917969 881.488281 78.878906 C 881.921875 79.636719 882.351562 80.621094 881.472656 81.285156 C 880.792969 81.804688 880.03125 81.238281 879.433594 80.789062 C 875.964844 78.15625 872.589844 75.421875 870.714844 70.15625 Z M 870.714844 70.15625 " fill-opacity="1" fill-rule="nonzero"/><path fill="#000000" d="M 824.203125 234.101562 C 823.914062 228.339844 825.804688 224.085938 828.828125 220.242188 C 829.253906 219.691406 829.71875 218.820312 830.613281 219.226562 C 831.542969 219.644531 831.117188 220.5 830.957031 221.210938 C 829.949219 225.910156 828.15625 230.199219 824.203125 234.101562 Z M 824.203125 234.101562 " fill-opacity="1" fill-rule="nonzero"/><path fill="#000000" d="M 906.871094 71.84375 C 905.796875 74.332031 904.164062 76.300781 902.210938 77.871094 C 900.476562 79.269531 898.371094 82.757812 896.554688 80.828125 C 894.761719 78.925781 898.128906 76.628906 899.730469 74.949219 C 901.171875 73.445312 903.1875 72.476562 904.972656 71.308594 C 905.8125 70.761719 906.589844 70.632812 906.871094 71.84375 Z M 906.871094 71.84375 " fill-opacity="1" fill-rule="nonzero"/><path fill="#000000" d="M 976.332031 101.085938 C 970.792969 99.53125 967.0625 95.601562 963.378906 91.609375 C 969.519531 92.265625 973.066406 96.507812 976.332031 101.085938 Z M 976.332031 101.085938 " fill-opacity="1" fill-rule="nonzero"/><path fill="#000000" d="M 797.164062 100.804688 C 800.492188 96.554688 803.902344 92.339844 809.792969 91.394531 C 806.289062 95.410156 802.640625 99.242188 797.164062 100.804688 Z M 797.164062 100.804688 " fill-opacity="1" fill-rule="nonzero"/><path fill="#000000" d="M 955.878906 307.953125 C 956.175781 300.574219 958.074219 297.234375 962.394531 295.9375 C 960.691406 300.027344 959.355469 304.007812 955.878906 307.953125 Z M 955.878906 307.953125 " fill-opacity="1" fill-rule="nonzero"/><path fill="#000000" d="M 971.832031 103.019531 C 975.660156 104.492188 977.613281 107.445312 978.53125 111.207031 C 975.105469 109.464844 972.546875 107.015625 971.832031 103.019531 Z M 971.832031 103.019531 " fill-opacity="1" fill-rule="nonzero"/><path fill="#000000" d="M 976.332031 116.523438 C 975.308594 114.464844 973.433594 112.847656 972.59375 109.65625 C 976.753906 111.542969 978.277344 114.679688 979.917969 117.667969 C 980.164062 118.113281 980.011719 118.722656 979.363281 118.835938 C 978.324219 119.019531 977.882812 118.003906 977.109375 117.625 C 976.851562 117.257812 976.589844 116.890625 976.332031 116.523438 Z M 976.332031 116.523438 " fill-opacity="1" fill-rule="nonzero"/><path fill="#000000" d="M 794.226562 110.320312 C 795.621094 106.855469 797.515625 103.84375 801.328125 102.300781 C 801.15625 105.621094 798.597656 108.640625 794.226562 110.320312 Z M 794.226562 110.320312 " fill-opacity="1" fill-rule="nonzero"/><path fill="#000000" d="M 796.722656 115.578125 C 796.5625 115.855469 796.394531 116.136719 796.234375 116.410156 C 795.339844 116.769531 794.457031 117.128906 793.480469 117.523438 C 794.027344 113.089844 796.429688 110.289062 800.214844 109.816406 C 798.988281 111.832031 797.859375 113.703125 796.722656 115.578125 Z M 796.722656 115.578125 " fill-opacity="1" fill-rule="nonzero"/><path fill="#000000" d="M 976.332031 116.523438 C 976.589844 116.890625 976.859375 117.257812 977.117188 117.625 C 977.699219 119.019531 978.300781 120.417969 978.851562 121.828125 C 978.917969 122.003906 978.726562 122.285156 978.558594 122.820312 C 976.722656 121.730469 975.707031 120.066406 974.730469 118.402344 C 973.5 116.328125 974.867188 116.363281 976.332031 116.523438 Z M 976.332031 116.523438 " fill-opacity="1" fill-rule="nonzero"/></svg>